<svg preserveAspectRatio="none" viewBox="0 0 38 37" fill="none" xmlns="http://www.w3.org/2000/svg">
<g clip-path="url(#clip0)">
<path d="M18.7403 0.5672C8.51152 0.5672 0.584473 7.82295 0.584473 17.6232C0.584473 22.7492 2.7547 27.1789 6.28724 30.2389C6.89718 30.7714 6.77154 31.0798 6.87527 34.3673C6.88344 34.5976 6.94953 34.8224 7.06779 35.0222C7.18604 35.222 7.35286 35.3907 7.55371 35.5136C7.75455 35.6364 7.98331 35.7097 8.22003 35.727C8.45676 35.7444 8.69426 35.7052 8.91182 35.613C12.7767 33.9611 12.8264 33.8306 13.4816 34.0036C24.679 36.9948 36.8157 30.0397 36.8157 17.6232C36.8157 7.82295 28.9698 0.5672 18.7403 0.5672ZM29.6418 13.6926L24.3094 21.8864C24.108 22.1945 23.8432 22.4589 23.5317 22.663C23.2201 22.8672 22.8685 23.0067 22.4987 23.0728C22.129 23.1389 21.7493 23.1302 21.3832 23.0472C21.0171 22.9641 20.6727 22.8086 20.3714 22.5904L16.1288 19.5084C15.9392 19.3704 15.7085 19.2957 15.4714 19.2957C15.2344 19.2957 15.0037 19.3704 14.814 19.5084L9.08932 23.7226C8.32525 24.2849 7.32451 23.3965 7.83949 22.6117L13.1719 14.4179C13.3732 14.1097 13.6379 13.8452 13.9495 13.641C14.2611 13.4368 14.6127 13.2973 14.9825 13.2311C15.3522 13.165 15.732 13.1738 16.0981 13.2569C16.4642 13.34 16.8087 13.4955 17.1099 13.7139L21.351 16.7951C21.5406 16.9332 21.7713 17.0078 22.0084 17.0078C22.2455 17.0078 22.4762 16.9332 22.6658 16.7951L28.3934 12.5852C29.156 12.0194 30.1568 12.9071 29.6418 13.6926Z" fill="white"/>
</g>
<defs>
<clipPath id="clip0">
<rect width="37.4" height="36.3" fill="white" transform="translate(0.00012207)"/>
</clipPath>
</defs>
</svg>
