<svg width="308" height="120" viewBox="0 0 308 120" fill="none" xmlns="http://www.w3.org/2000/svg">
<g filter="url(#filter0_d)">
<path d="M12.6953 11.0736H288C299.046 11.0736 308 20.0279 308 31.0736V91.0736C308 102.119 299.046 111.074 288 111.074H12.6953V11.0736Z" fill="white"/>
</g>
<path d="M234.905 111.074C234.905 73.7944 264.358 43.5737 300.69 43.5737C303.161 43.5737 305.6 43.7134 308 43.9856V91.4955C307.513 104.074 297.279 111.074 289.483 111.074H234.905Z" fill="#C4C4C4"/>
<path d="M236.854 111.074C236.854 75.1751 265.522 46.0737 300.885 46.0737C303.29 46.0737 305.664 46.2082 308 46.4704V92.2206C307.526 104.333 297.565 111.074 289.976 111.074H236.854Z" fill="white"/>
<path d="M40.1599 11.1473L74.2992 11.1473L42.1091 111.147L16.7695 111.147L16.7695 78.1473L40.1599 11.1473Z" fill="#FAF8F8"/>
<path d="M38.2107 11.1473L72.35 11.1473L40.1599 111.147L14.8202 111.147L14.8202 78.1473L38.2107 11.1473Z" fill="#EAEAEA"/>
<path d="M36.0857 11.0736L70.225 11.0736L38.0349 111.074L12.6952 111.074L12.6952 78.0736L36.0857 11.0736Z" fill="#C4C4C4"/>
<g filter="url(#filter1_d)">
<path d="M1 21.0736H58.238L43.1335 66.0736H1V21.0736Z" fill="#EC524B"/>
</g>
<path d="M12.6952 75.0735V66.0735H1L12.6952 75.0735Z" fill="#7A2821"/>
<path d="M12.6952 12.0736V21.0736H1L12.6952 12.0736Z" fill="#7A2821"/>
<path d="M61.4108 86.0736H62.7068C65.6668 86.0736 66.4348 84.7616 66.4348 80.0416C66.4348 74.2976 64.9308 74.0096 62.6268 74.0096H61.4108V86.0736ZM62.5308 75.0336H62.7228C64.8508 75.0336 65.2828 75.8976 65.2828 80.0416C65.2828 83.5296 65.0108 85.0496 62.8508 85.0496H62.5308V75.0336ZM68.2126 81.3056C68.2126 80.5696 68.4366 78.7136 69.4286 78.7136C70.5166 78.7136 70.5486 80.3776 70.5806 81.1616L70.5966 81.3056H68.2126ZM71.6526 82.1856V81.6896C71.6526 80.2496 71.3486 77.7376 69.4286 77.7376C67.4446 77.7376 67.1246 80.5216 67.1246 81.9936C67.1246 83.6416 67.4126 86.2016 69.5726 86.2016C71.0926 86.2016 71.5726 84.5376 71.5886 83.2896H70.5166C70.5166 83.9456 70.3886 85.2256 69.4766 85.2256C68.3406 85.2256 68.1966 83.2416 68.1966 82.4256V82.1856H71.6526ZM75.5849 78.2656C75.1689 77.9456 74.6729 77.7376 74.1449 77.7376C72.9129 77.7376 72.0969 78.6016 72.0969 79.8336C72.0969 80.8096 72.7689 81.4496 73.4249 82.0256C74.0969 82.6176 74.7529 83.1616 74.7529 83.9776C74.7529 84.6656 74.2729 85.2256 73.5529 85.2256C72.9289 85.2256 72.4969 84.8416 72.0969 84.4256V85.6416C72.4969 85.9616 73.0729 86.2016 73.5849 86.2016C74.9449 86.2016 75.8249 85.1616 75.8249 83.8496C75.8249 82.7776 75.1689 82.1696 74.4969 81.6096C73.8409 81.0656 73.1689 80.5856 73.1689 79.8016C73.1689 79.1936 73.5689 78.7136 74.1929 78.7136C74.7689 78.7136 75.2489 79.1136 75.5529 79.5456H75.5849V78.2656ZM77.5421 77.8656H76.5021V86.0736H77.5421V77.8656ZM77.7981 75.4336C77.7981 75.0176 77.4461 74.6656 77.0301 74.6656C76.5981 74.6656 76.2461 75.0176 76.2461 75.4336C76.2461 75.8656 76.5981 76.2176 77.0301 76.2176C77.4461 76.2176 77.7981 75.8656 77.7981 75.4336ZM79.4184 82.1056C79.4184 79.0976 79.8824 78.5856 80.6344 78.5856C81.7704 78.5856 81.8664 80.3136 81.8664 81.8176C81.8664 83.6096 81.8184 85.2256 80.7144 85.2256C79.4024 85.2256 79.4184 83.0016 79.4184 82.1056ZM82.8104 77.8656H81.7704V78.4256H81.7384C81.4344 77.9936 80.9704 77.7376 80.4104 77.7376C78.5064 77.7376 78.3464 80.4096 78.3464 81.7856C78.3464 83.2416 78.3784 86.0736 80.4264 86.0736C80.9704 86.0736 81.4024 85.8976 81.7544 85.4976V86.4576C81.7544 87.3376 81.8504 88.3616 80.6824 88.3616C79.7864 88.3616 79.5784 87.6736 79.5784 86.9056V86.7616H78.5544V87.0656C78.5544 88.4736 79.2264 89.3376 80.6664 89.3376C82.7464 89.3376 82.8104 87.9136 82.8104 86.3776V77.8656ZM84.8827 77.8656H83.8427V86.0736H84.8827V80.7456C84.8827 79.8816 84.9307 78.5856 86.1147 78.5856C86.9787 78.5856 87.0427 79.3376 87.0427 80.3136V86.0736H88.0827V80.2016C88.0827 79.0816 87.9547 77.7376 86.4987 77.7376C85.8587 77.7376 85.2987 78.0416 84.8827 78.5216V77.8656ZM95.2583 81.8336C95.2583 84.4096 95.0663 85.3536 94.0583 85.3536C93.4503 85.3536 92.8903 85.1936 92.8903 81.8016C92.8903 80.4096 92.9543 78.5856 94.1063 78.5856C95.1303 78.5856 95.2583 80.0576 95.2583 81.8336ZM96.2023 77.8656H95.1623V78.4256H95.1303C94.8103 77.9776 94.4423 77.7376 93.8663 77.7376C91.8823 77.7376 91.8183 80.0416 91.8183 81.8816C91.8183 85.4656 92.4583 86.2016 93.7703 86.2016C94.3623 86.2016 94.8263 85.8976 95.1303 85.4336H95.1623V86.0736H96.2023V77.8656ZM98.2764 77.8656H97.2364V86.0736H98.2764V80.7456C98.2764 79.8816 98.3244 78.5856 99.5084 78.5856C100.372 78.5856 100.436 79.3376 100.436 80.3136V86.0736H101.476V80.2016C101.476 79.0816 101.348 77.7376 99.8924 77.7376C99.2524 77.7376 98.6924 78.0416 98.2764 78.5216V77.8656ZM105.724 81.8336C105.724 83.9936 105.628 85.3536 104.524 85.3536C103.196 85.3536 103.356 82.5696 103.356 81.8016C103.356 80.6336 103.404 78.5856 104.572 78.5856C105.532 78.5856 105.724 79.9616 105.724 81.8336ZM105.628 86.0736H106.668V73.2736H105.628V78.4256H105.596C105.276 77.9776 104.908 77.7376 104.332 77.7376C102.508 77.7376 102.284 79.6416 102.284 81.8816C102.284 84.1216 102.524 86.2016 104.236 86.2016C104.828 86.2016 105.292 85.8976 105.596 85.4336H105.628V86.0736ZM113.766 78.2656C113.35 77.9456 112.854 77.7376 112.326 77.7376C111.094 77.7376 110.278 78.6016 110.278 79.8336C110.278 80.8096 110.95 81.4496 111.606 82.0256C112.278 82.6176 112.934 83.1616 112.934 83.9776C112.934 84.6656 112.454 85.2256 111.734 85.2256C111.11 85.2256 110.678 84.8416 110.278 84.4256V85.6416C110.678 85.9616 111.254 86.2016 111.766 86.2016C113.126 86.2016 114.006 85.1616 114.006 83.8496C114.006 82.7776 113.35 82.1696 112.678 81.6096C112.022 81.0656 111.35 80.5856 111.35 79.8016C111.35 79.1936 111.75 78.7136 112.374 78.7136C112.95 78.7136 113.43 79.1136 113.734 79.5456H113.766V78.2656ZM115.723 73.2736H114.683V86.0736H115.723V80.7456C115.723 79.8816 115.771 78.5856 116.955 78.5856C117.739 78.5856 117.883 79.0976 117.883 80.3776V86.0736H118.923V80.2016C118.923 79.0496 118.843 77.7376 117.339 77.7376C116.699 77.7376 116.139 78.0416 115.723 78.5216V73.2736ZM123.171 81.8336C123.171 84.4096 122.979 85.3536 121.971 85.3536C121.363 85.3536 120.803 85.1936 120.803 81.8016C120.803 80.4096 120.867 78.5856 122.019 78.5856C123.043 78.5856 123.171 80.0576 123.171 81.8336ZM124.115 77.8656H123.075V78.4256H123.043C122.723 77.9776 122.355 77.7376 121.779 77.7376C119.795 77.7376 119.731 80.0416 119.731 81.8816C119.731 85.4656 120.371 86.2016 121.683 86.2016C122.275 86.2016 122.739 85.8976 123.043 85.4336H123.075V86.0736H124.115V77.8656ZM126.189 77.8656H125.149V86.0736H126.189V81.2896C126.189 79.9776 126.301 78.9376 127.373 78.9376L127.581 78.9536V77.7376C126.893 77.7216 126.445 78.3776 126.221 78.9536H126.189V77.8656ZM128.878 81.3056C128.878 80.5696 129.102 78.7136 130.094 78.7136C131.182 78.7136 131.214 80.3776 131.246 81.1616L131.262 81.3056H128.878ZM132.318 82.1856V81.6896C132.318 80.2496 132.014 77.7376 130.094 77.7376C128.11 77.7376 127.79 80.5216 127.79 81.9936C127.79 83.6416 128.078 86.2016 130.238 86.2016C131.758 86.2016 132.238 84.5376 132.254 83.2896H131.182C131.182 83.9456 131.054 85.2256 130.142 85.2256C129.006 85.2256 128.862 83.2416 128.862 82.4256V82.1856H132.318ZM140.507 77.8656H139.419L138.363 82.3776C138.203 83.0816 138.075 83.7856 137.931 84.4896H137.883L136.507 77.8656H135.451L137.403 85.8496L136.587 89.2096H137.675L140.507 77.8656ZM143.067 77.7376C140.907 77.7376 140.715 80.4256 140.715 81.9616C140.715 83.5136 140.907 86.2016 143.067 86.2016C145.227 86.2016 145.419 83.5136 145.419 81.9616C145.419 80.4256 145.227 77.7376 143.067 77.7376ZM143.067 78.7136C144.315 78.7136 144.347 81.1776 144.347 81.9616C144.347 82.7616 144.315 85.2256 143.067 85.2256C141.819 85.2256 141.787 82.7616 141.787 81.9616C141.787 81.1776 141.819 78.7136 143.067 78.7136ZM146.179 77.8656V83.8976C146.179 85.2896 146.867 86.2016 148.323 86.2016C149.795 86.2016 150.467 85.2736 150.467 83.8976V77.8656H149.427V83.0176C149.411 84.1376 149.363 85.2256 148.307 85.2256C147.283 85.2256 147.219 84.1376 147.219 83.0176V77.8656H146.179ZM152.476 77.8656H151.436V86.0736H152.476V81.2896C152.476 79.9776 152.588 78.9376 153.66 78.9376L153.868 78.9536V77.7376C153.18 77.7216 152.732 78.3776 152.508 78.9536H152.476V77.8656ZM159.39 85.3536C158.062 85.3536 158.19 82.7456 158.19 81.7376C158.19 81.0016 158.078 78.5856 159.342 78.5856C160.382 78.5856 160.558 79.9296 160.558 81.8016C160.558 84.6176 160.238 85.3536 159.39 85.3536ZM157.246 86.0736H158.286V85.4336H158.318C158.622 85.8976 159.086 86.2016 159.678 86.2016C161.47 86.2016 161.63 83.9616 161.63 81.8816C161.63 80.0256 161.502 77.7376 159.598 77.7376C159.006 77.7376 158.622 77.9616 158.318 78.4256H158.286V73.2736H157.246V86.0736ZM162.36 77.8656V83.8976C162.36 85.2896 163.048 86.2016 164.504 86.2016C165.976 86.2016 166.648 85.2736 166.648 83.8976V77.8656H165.608V83.0176C165.592 84.1376 165.544 85.2256 164.488 85.2256C163.464 85.2256 163.4 84.1376 163.4 83.0176V77.8656H162.36ZM170.754 78.2656C170.338 77.9456 169.842 77.7376 169.314 77.7376C168.082 77.7376 167.266 78.6016 167.266 79.8336C167.266 80.8096 167.938 81.4496 168.594 82.0256C169.266 82.6176 169.922 83.1616 169.922 83.9776C169.922 84.6656 169.442 85.2256 168.722 85.2256C168.098 85.2256 167.666 84.8416 167.266 84.4256V85.6416C167.666 85.9616 168.242 86.2016 168.754 86.2016C170.114 86.2016 170.994 85.1616 170.994 83.8496C170.994 82.7776 170.338 82.1696 169.666 81.6096C169.01 81.0656 168.338 80.5856 168.338 79.8016C168.338 79.1936 168.738 78.7136 169.362 78.7136C169.938 78.7136 170.418 79.1136 170.722 79.5456H170.754V78.2656ZM172.711 77.8656H171.671V86.0736H172.711V77.8656ZM172.967 75.4336C172.967 75.0176 172.615 74.6656 172.199 74.6656C171.767 74.6656 171.415 75.0176 171.415 75.4336C171.415 75.8656 171.767 76.2176 172.199 76.2176C172.615 76.2176 172.967 75.8656 172.967 75.4336ZM174.795 77.8656H173.755V86.0736H174.795V80.7456C174.795 79.8816 174.843 78.5856 176.027 78.5856C176.891 78.5856 176.955 79.3376 176.955 80.3136V86.0736H177.995V80.2016C177.995 79.0816 177.867 77.7376 176.411 77.7376C175.771 77.7376 175.211 78.0416 174.795 78.5216V77.8656ZM179.891 81.3056C179.891 80.5696 180.115 78.7136 181.107 78.7136C182.195 78.7136 182.227 80.3776 182.259 81.1616L182.275 81.3056H179.891ZM183.331 82.1856V81.6896C183.331 80.2496 183.027 77.7376 181.107 77.7376C179.123 77.7376 178.803 80.5216 178.803 81.9936C178.803 83.6416 179.091 86.2016 181.251 86.2016C182.771 86.2016 183.251 84.5376 183.267 83.2896H182.195C182.195 83.9456 182.067 85.2256 181.155 85.2256C180.019 85.2256 179.875 83.2416 179.875 82.4256V82.1856H183.331ZM187.263 78.2656C186.847 77.9456 186.351 77.7376 185.823 77.7376C184.591 77.7376 183.775 78.6016 183.775 79.8336C183.775 80.8096 184.447 81.4496 185.103 82.0256C185.775 82.6176 186.431 83.1616 186.431 83.9776C186.431 84.6656 185.951 85.2256 185.231 85.2256C184.607 85.2256 184.175 84.8416 183.775 84.4256V85.6416C184.175 85.9616 184.751 86.2016 185.263 86.2016C186.623 86.2016 187.503 85.1616 187.503 83.8496C187.503 82.7776 186.847 82.1696 186.175 81.6096C185.519 81.0656 184.847 80.5856 184.847 79.8016C184.847 79.1936 185.247 78.7136 185.871 78.7136C186.447 78.7136 186.927 79.1136 187.231 79.5456H187.263V78.2656ZM191.316 78.2656C190.9 77.9456 190.404 77.7376 189.876 77.7376C188.644 77.7376 187.828 78.6016 187.828 79.8336C187.828 80.8096 188.5 81.4496 189.156 82.0256C189.828 82.6176 190.484 83.1616 190.484 83.9776C190.484 84.6656 190.004 85.2256 189.284 85.2256C188.66 85.2256 188.228 84.8416 187.828 84.4256V85.6416C188.228 85.9616 188.804 86.2016 189.316 86.2016C190.676 86.2016 191.556 85.1616 191.556 83.8496C191.556 82.7776 190.9 82.1696 190.228 81.6096C189.572 81.0656 188.9 80.5856 188.9 79.8016C188.9 79.1936 189.3 78.7136 189.924 78.7136C190.5 78.7136 190.98 79.1136 191.284 79.5456H191.316V78.2656ZM198.457 78.0576C198.121 77.8496 197.705 77.7376 197.321 77.7376C195.241 77.7376 194.921 80.5856 194.921 82.1376C194.921 83.5456 195.385 86.2016 197.273 86.2016C197.673 86.2016 198.153 86.0416 198.457 85.7856V84.4896H198.425C198.185 84.8576 197.881 85.2256 197.401 85.2256C196.169 85.2256 195.993 82.8096 195.993 81.9936C195.993 81.0496 196.121 78.7136 197.465 78.7136C197.865 78.7136 198.201 78.9856 198.457 79.2576V78.0576ZM202.415 81.8336C202.415 84.4096 202.223 85.3536 201.215 85.3536C200.607 85.3536 200.047 85.1936 200.047 81.8016C200.047 80.4096 200.111 78.5856 201.263 78.5856C202.287 78.5856 202.415 80.0576 202.415 81.8336ZM203.359 77.8656H202.319V78.4256H202.287C201.967 77.9776 201.599 77.7376 201.023 77.7376C199.039 77.7376 198.975 80.0416 198.975 81.8816C198.975 85.4656 199.615 86.2016 200.927 86.2016C201.519 86.2016 201.983 85.8976 202.287 85.4336H202.319V86.0736H203.359V77.8656ZM205.433 77.8656H204.393V86.0736H205.433V81.2896C205.433 79.9776 205.545 78.9376 206.617 78.9376L206.825 78.9536V77.7376C206.137 77.7216 205.689 78.3776 205.465 78.9536H205.433V77.8656ZM210.474 81.8336C210.474 83.9936 210.378 85.3536 209.274 85.3536C207.946 85.3536 208.106 82.5696 208.106 81.8016C208.106 80.6336 208.154 78.5856 209.322 78.5856C210.282 78.5856 210.474 79.9616 210.474 81.8336ZM210.378 86.0736H211.418V73.2736H210.378V78.4256H210.346C210.026 77.9776 209.658 77.7376 209.082 77.7376C207.258 77.7376 207.034 79.6416 207.034 81.8816C207.034 84.1216 207.274 86.2016 208.986 86.2016C209.578 86.2016 210.042 85.8976 210.346 85.4336H210.378V86.0736ZM216.228 81.3056C216.228 80.5696 216.452 78.7136 217.444 78.7136C218.532 78.7136 218.564 80.3776 218.596 81.1616L218.612 81.3056H216.228ZM219.668 82.1856V81.6896C219.668 80.2496 219.364 77.7376 217.444 77.7376C215.46 77.7376 215.14 80.5216 215.14 81.9936C215.14 83.6416 215.428 86.2016 217.588 86.2016C219.108 86.2016 219.588 84.5376 219.604 83.2896H218.532C218.532 83.9456 218.404 85.2256 217.492 85.2256C216.356 85.2256 216.212 83.2416 216.212 82.4256V82.1856H219.668ZM223.665 81.8336C223.665 84.4096 223.473 85.3536 222.465 85.3536C221.857 85.3536 221.297 85.1936 221.297 81.8016C221.297 80.4096 221.361 78.5856 222.513 78.5856C223.537 78.5856 223.665 80.0576 223.665 81.8336ZM224.609 77.8656H223.569V78.4256H223.537C223.217 77.9776 222.849 77.7376 222.273 77.7376C220.289 77.7376 220.225 80.0416 220.225 81.8816C220.225 85.4656 220.865 86.2016 222.177 86.2016C222.769 86.2016 223.233 85.8976 223.537 85.4336H223.569V86.0736H224.609V77.8656ZM228.779 78.2656C228.363 77.9456 227.867 77.7376 227.339 77.7376C226.107 77.7376 225.291 78.6016 225.291 79.8336C225.291 80.8096 225.963 81.4496 226.619 82.0256C227.291 82.6176 227.947 83.1616 227.947 83.9776C227.947 84.6656 227.467 85.2256 226.747 85.2256C226.123 85.2256 225.691 84.8416 225.291 84.4256V85.6416C225.691 85.9616 226.267 86.2016 226.779 86.2016C228.139 86.2016 229.019 85.1616 229.019 83.8496C229.019 82.7776 228.363 82.1696 227.691 81.6096C227.035 81.0656 226.363 80.5856 226.363 79.8016C226.363 79.1936 226.763 78.7136 227.387 78.7136C227.963 78.7136 228.443 79.1136 228.747 79.5456H228.779V78.2656ZM234.16 77.8656H233.072L232.016 82.3776C231.856 83.0816 231.728 83.7856 231.584 84.4896H231.536L230.16 77.8656H229.104L231.056 85.8496L230.24 89.2096H231.328L234.16 77.8656ZM240.736 81.8336C240.736 84.4096 240.544 85.3536 239.536 85.3536C238.928 85.3536 238.368 85.1936 238.368 81.8016C238.368 80.4096 238.432 78.5856 239.584 78.5856C240.608 78.5856 240.736 80.0576 240.736 81.8336ZM241.68 77.8656H240.64V78.4256H240.608C240.288 77.9776 239.92 77.7376 239.344 77.7376C237.36 77.7376 237.296 80.0416 237.296 81.8816C237.296 85.4656 237.936 86.2016 239.248 86.2016C239.84 86.2016 240.304 85.8976 240.608 85.4336H240.64V86.0736H241.68V77.8656ZM245.851 78.2656C245.435 77.9456 244.939 77.7376 244.411 77.7376C243.179 77.7376 242.363 78.6016 242.363 79.8336C242.363 80.8096 243.035 81.4496 243.691 82.0256C244.363 82.6176 245.019 83.1616 245.019 83.9776C245.019 84.6656 244.539 85.2256 243.819 85.2256C243.195 85.2256 242.763 84.8416 242.363 84.4256V85.6416C242.763 85.9616 243.339 86.2016 243.851 86.2016C245.211 86.2016 246.091 85.1616 246.091 83.8496C246.091 82.7776 245.435 82.1696 244.763 81.6096C244.107 81.0656 243.435 80.5856 243.435 79.8016C243.435 79.1936 243.835 78.7136 244.459 78.7136C245.035 78.7136 245.515 79.1136 245.819 79.5456H245.851V78.2656ZM253.024 74.0096H250.592L250.352 75.0656H251.936V86.0736H253.024V74.0096ZM257.92 85.0816L256.784 84.5696L255.552 88.2816L256.32 88.6496L257.92 85.0816ZM266.704 85.0816H263.424L265.168 81.5456C265.936 80.0416 266.848 78.3296 266.848 76.6176C266.848 75.0496 266.064 73.8496 264.368 73.8496C262.32 73.8496 261.952 75.6576 261.952 77.3056H263.04V77.0496C263.04 76.1056 263.232 74.8736 264.432 74.8736C265.44 74.8736 265.76 75.7056 265.76 76.5376C265.76 78.0896 264.832 79.7696 264.16 81.1456L261.76 86.0736H266.704V85.0816ZM270.033 85.0816L268.897 84.5696L267.665 88.2816L268.433 88.6496L270.033 85.0816ZM275.649 79.9776C277.409 79.9456 277.889 81.0016 277.889 82.6016C277.889 83.5616 277.809 85.2096 276.497 85.2096C275.281 85.2096 275.073 84.1056 275.057 83.1136V82.7616H273.985L273.969 83.2896C273.969 85.0016 274.657 86.2336 276.529 86.2336C278.545 86.2336 278.977 84.4416 278.977 82.7936C278.977 81.5456 278.785 79.9136 277.441 79.4016C278.577 78.9056 278.817 77.7216 278.817 76.6016C278.817 75.0336 278.113 73.8496 276.385 73.8496C274.705 73.8496 274.065 75.3856 274.113 76.8256H275.201C275.201 75.9136 275.297 74.8736 276.449 74.8736C277.473 74.8736 277.729 75.7696 277.729 76.6976C277.729 78.5056 277.217 78.9536 275.521 78.9536H275.329V79.9776H275.649Z" fill="black"/>
<path d="M61.2438 56.0736V30.3392H66.6051C70.6598 30.3392 73.4899 30.5267 75.0953 30.9017C76.7594 31.2767 78.2125 31.9037 79.4547 32.7826C81.0953 33.9076 82.3317 35.3607 83.1637 37.142C84.0074 38.9349 84.4293 40.9623 84.4293 43.224C84.4293 45.4857 84.0074 47.5131 83.1637 49.306C82.3317 51.0638 81.0953 52.517 79.4547 53.6654C78.1656 54.5443 76.7477 55.1537 75.2008 55.4935C73.6539 55.8802 71.1813 56.0736 67.7828 56.0736H66.6051H61.2438ZM68.1871 50.308H69.3649C72.1305 50.308 74.1403 49.7338 75.3942 48.5853C76.6598 47.4603 77.2926 45.6732 77.2926 43.224C77.2926 40.7865 76.6598 38.9877 75.3942 37.8275C74.1285 36.6674 72.1188 36.0873 69.3649 36.0873H68.1871V50.308ZM95.3453 40.6224H96.7516C98.4977 40.6224 99.6871 40.4349 100.32 40.0599C100.964 39.6615 101.287 38.9994 101.287 38.0736C101.287 37.101 100.988 36.4154 100.39 36.017C99.734 35.6068 98.5563 35.4017 96.8571 35.4017H95.3453V40.6224ZM88.8414 56.0736V30.3392H95.8903C98.7262 30.3392 100.754 30.433 101.972 30.6205C103.109 30.7963 104.105 31.1185 104.961 31.5873C105.898 32.1381 106.619 32.8353 107.123 33.6791C107.627 34.5697 107.879 35.601 107.879 36.7728C107.879 38.2611 107.504 39.433 106.754 40.2885C106.015 41.1322 104.832 41.7767 103.203 42.222C104.984 42.3627 106.414 42.9955 107.492 44.1205C108.523 45.2689 109.039 46.8041 109.039 48.726C109.039 50.0853 108.746 51.2865 108.16 52.3295C107.574 53.4076 106.748 54.222 105.681 54.7728C104.861 55.2064 103.783 55.5463 102.447 55.7924C101.064 55.9799 98.9489 56.0736 96.1012 56.0736H88.8414ZM95.3453 50.8177H97.8063C99.4703 50.8177 100.642 50.601 101.322 50.1674C102.025 49.7689 102.377 49.0834 102.377 48.1107C102.377 47.056 102.06 46.3002 101.427 45.8431C100.795 45.4213 99.6227 45.2103 97.9117 45.2103H95.3453V50.8177ZM131.925 31.3412V39.0052C130.918 37.9154 129.968 37.1244 129.078 36.6322C128.082 36.1517 127.05 35.9115 125.984 35.9115C123.98 35.9115 122.345 36.597 121.08 37.9681C120.646 38.4603 120.295 38.976 120.025 39.515C119.755 40.0424 119.55 40.6459 119.41 41.3256C119.281 41.9935 119.216 42.6732 119.216 43.3646C119.216 45.4271 119.849 47.1439 121.115 48.515C122.392 49.8627 124.015 50.5365 125.984 50.5365C127.039 50.5365 128.07 50.2845 129.078 49.7806C129.968 49.3236 130.918 48.5385 131.925 47.4252V55.1068C130.625 55.7162 129.517 56.1205 128.603 56.3197C127.466 56.5892 126.353 56.724 125.263 56.724C123.88 56.724 122.58 56.5541 121.361 56.2142C120.142 55.8861 119.052 55.3822 118.091 54.7025C116.17 53.39 114.705 51.7728 113.697 49.851C112.689 47.8588 112.185 45.6498 112.185 43.224C112.185 41.2787 112.513 39.4916 113.17 37.8627C113.463 37.0775 113.832 36.3392 114.277 35.6478C114.734 34.9447 115.32 34.2181 116.035 33.4681C117.265 32.2025 118.648 31.265 120.183 30.6556C121.707 30.0345 123.4 29.724 125.263 29.724C126.33 29.724 127.443 29.8529 128.603 30.1107C129.752 30.4154 130.859 30.8256 131.925 31.3412ZM148.308 47.7592C149.386 48.9545 150.418 49.8392 151.402 50.4135C152.433 50.9994 153.441 51.2924 154.425 51.2924C155.351 51.2924 156.119 51.0404 156.728 50.5365C157.338 50.0326 157.642 49.3939 157.642 48.6205C157.642 47.7767 157.39 47.1146 156.886 46.6342C156.347 46.1771 155.158 45.7025 153.318 45.2103C150.81 44.5306 149.035 43.6517 147.992 42.5736C146.937 41.472 146.41 39.972 146.41 38.0736C146.41 35.6127 147.236 33.6088 148.888 32.0619C150.517 30.5033 152.65 29.724 155.287 29.724C156.775 29.724 158.123 29.9174 159.33 30.3041C160.595 30.6908 161.797 31.265 162.933 32.0267L160.736 37.0717C159.963 36.4037 159.142 35.8881 158.275 35.5248C157.431 35.1849 156.605 35.015 155.797 35.015C154.976 35.015 154.291 35.2201 153.74 35.6302C153.213 36.017 152.949 36.5326 152.949 37.1771C152.949 37.7982 153.177 38.3138 153.634 38.724C154.115 39.1107 155.017 39.4799 156.341 39.8314C156.388 39.8431 156.429 39.8549 156.464 39.8666C156.5 39.8666 156.552 39.8783 156.623 39.9017C159.482 40.6635 161.369 41.5189 162.283 42.4681C162.88 43.0658 163.349 43.8217 163.689 44.7357C163.994 45.6029 164.146 46.5873 164.146 47.6888C164.146 50.4076 163.25 52.6049 161.457 54.2806C159.652 55.933 157.261 56.7592 154.285 56.7592C152.457 56.7592 150.822 56.4603 149.38 55.8627C147.951 55.265 146.539 54.3041 145.144 52.9799L148.308 47.7592ZM166.677 63.9135L171.67 53.3666L164.515 38.3197H171.459L173.937 44.7357C174.183 45.3217 174.353 45.8256 174.447 46.2474C174.576 46.681 174.687 47.1146 174.781 47.5482C174.851 47.1263 174.957 46.681 175.097 46.2123C175.191 45.8021 175.361 45.3099 175.607 44.7357L178.121 38.3197H184.818L173.656 63.9135H166.677ZM185.152 54.597L186.453 49.8158C187.367 50.6244 188.375 51.2338 189.476 51.6439C190.566 52.0775 191.668 52.2943 192.781 52.2943C193.578 52.2943 194.175 52.1595 194.574 51.89C194.984 51.6439 195.189 51.2865 195.189 50.8177C195.189 50.0326 194.363 49.4467 192.711 49.0599C192.136 48.931 191.703 48.8197 191.41 48.726C189.5 48.1635 188.146 47.4779 187.349 46.6693C186.482 45.8373 186.048 44.7592 186.048 43.4349C186.048 41.724 186.699 40.347 188 39.3041C189.254 38.2728 191.005 37.7572 193.255 37.7572C194.345 37.7572 195.505 37.8861 196.736 38.1439C197.767 38.3549 198.968 38.765 200.339 39.3744L199.039 43.681C198.195 43.1068 197.345 42.6791 196.49 42.3978C195.681 42.1049 194.832 41.9584 193.941 41.9584C193.214 41.9584 192.67 42.0697 192.306 42.2924C191.955 42.5033 191.779 42.8256 191.779 43.2592C191.779 43.8685 192.605 44.3959 194.257 44.8412C194.797 45.0052 195.072 45.0873 195.084 45.0873C197.24 45.6967 198.752 46.4174 199.619 47.2494C200.463 48.1283 200.884 49.2709 200.884 50.6771C200.884 52.4935 200.187 53.9584 198.793 55.0717C197.363 56.1967 195.517 56.7592 193.255 56.7592C191.685 56.7592 190.238 56.5775 188.914 56.2142C187.601 55.8627 186.347 55.3236 185.152 54.597ZM205.244 56.0736L205.209 42.7494H202.554V38.3197H205.209V33.0287H211.414V38.3197H214.033V42.7494H211.414V56.0736H205.244ZM229.203 44.9115C229.097 43.9271 228.716 43.1244 228.06 42.5033C227.404 41.8822 226.601 41.5717 225.652 41.5717C224.656 41.5717 223.847 41.847 223.226 42.3978C222.582 43.0189 222.177 43.8568 222.013 44.9115H229.203ZM235.373 48.4447H221.873C221.908 49.8275 222.254 50.8822 222.91 51.6088C223.589 52.3588 224.574 52.7338 225.863 52.7338C226.8 52.7338 227.603 52.5521 228.271 52.1888C228.951 51.8021 229.443 51.2748 229.748 50.6068L234.459 52.5052C233.908 53.8529 232.912 54.8959 231.47 55.6342C230.041 56.3842 228.289 56.7592 226.214 56.7592C223.121 56.7592 220.636 55.892 218.761 54.1576C216.898 52.4701 215.966 50.2142 215.966 47.39C215.966 44.6361 216.898 42.3334 218.761 40.4818C220.625 38.6654 222.992 37.7572 225.863 37.7572C228.793 37.7572 231.107 38.6771 232.806 40.517C233.673 41.4662 234.318 42.5736 234.74 43.8392C235.162 45.0931 235.373 46.5287 235.373 48.1459V48.4447ZM262.443 56.0736V46.3881C262.443 44.8646 262.267 43.8099 261.916 43.224C261.517 42.6263 260.855 42.3275 259.929 42.3275C258.746 42.3275 257.931 42.7318 257.486 43.5404C257.029 44.3373 256.8 46.0072 256.8 48.5502V56.0736H250.754V46.3881C250.754 44.806 250.56 43.7396 250.173 43.1888C249.822 42.6146 249.172 42.3275 248.222 42.3275C247.039 42.3275 246.213 42.7201 245.744 43.5052C245.287 44.3021 245.058 45.9838 245.058 48.5502V56.0736H238.976V38.3197H245.129V41.4135C245.879 40.1713 246.734 39.2513 247.695 38.6537C248.632 38.056 249.769 37.7572 251.105 37.7572C252.547 37.7572 253.736 38.0326 254.673 38.5834C255.564 39.1459 256.214 39.9838 256.625 41.097C257.339 39.9369 258.189 39.099 259.173 38.5834C260.146 38.0326 261.312 37.7572 262.672 37.7572C263.738 37.7572 264.67 37.933 265.466 38.2845C266.287 38.6713 266.961 39.2103 267.488 39.9017C267.933 40.4525 268.244 41.1029 268.42 41.8529C268.595 42.5443 268.683 43.7689 268.683 45.5267V45.9135V56.0736H262.443Z" fill="#312F2F"/>
<defs>
<filter id="filter0_d" x="12.6953" y="11.0736" width="295.305" height="104" filterUnits="userSpaceOnUse" color-interpolation-filters="sRGB">
<feFlood flood-opacity="0" result="BackgroundImageFix"/>
<feColorMatrix in="SourceAlpha" type="matrix" values="0 0 0 0 0 0 0 0 0 0 0 0 0 0 0 0 0 0 127 0"/>
<feOffset dy="4"/>
<feColorMatrix type="matrix" values="0 0 0 0 0 0 0 0 0 0 0 0 0 0 0 0 0 0 0.25 0"/>
<feBlend mode="normal" in2="BackgroundImageFix" result="effect1_dropShadow"/>
<feBlend mode="normal" in="SourceGraphic" in2="effect1_dropShadow" result="shape"/>
</filter>
<filter id="filter1_d" x="0" y="20.0736" width="61.238" height="49" filterUnits="userSpaceOnUse" color-interpolation-filters="sRGB">
<feFlood flood-opacity="0" result="BackgroundImageFix"/>
<feColorMatrix in="SourceAlpha" type="matrix" values="0 0 0 0 0 0 0 0 0 0 0 0 0 0 0 0 0 0 127 0"/>
<feOffset dx="1" dy="1"/>
<feGaussianBlur stdDeviation="1"/>
<feColorMatrix type="matrix" values="0 0 0 0 0 0 0 0 0 0 0 0 0 0 0 0 0 0 0.4 0"/>
<feBlend mode="normal" in2="BackgroundImageFix" result="effect1_dropShadow"/>
<feBlend mode="normal" in="SourceGraphic" in2="effect1_dropShadow" result="shape"/>
</filter>
</defs>
</svg>
