<svg width="37" height="37" viewBox="0 0 37 37" fill="none" xmlns="http://www.w3.org/2000/svg">
<g clip-path="url(#clip0)">
<path d="M32.3751 13.875V5.58252C32.3751 4.96898 32.1316 4.38146 31.698 3.94715L28.4272 0.677129C27.9937 0.243535 27.4054 0 26.7919 0H6.93762C5.66069 0 4.62512 1.03557 4.62512 2.3125V13.875C2.07053 13.875 0.00012207 15.9454 0.00012207 18.5V26.5938C0.00012207 27.2326 0.517544 27.75 1.15637 27.75H4.62512V34.6875C4.62512 35.9644 5.66069 37 6.93762 37H30.0626C31.3396 37 32.3751 35.9644 32.3751 34.6875V27.75H35.8439C36.4827 27.75 37.0001 27.2326 37.0001 26.5938V18.5C37.0001 15.9454 34.9297 13.875 32.3751 13.875ZM27.7501 32.375H9.25012V25.4375H27.7501V32.375ZM27.7501 16.1875H9.25012V4.625H23.1251V8.09375C23.1251 8.73258 23.6425 9.25 24.2814 9.25H27.7501V16.1875ZM31.2189 21.3906C30.2614 21.3906 29.4845 20.6138 29.4845 19.6562C29.4845 18.698 30.2614 17.9219 31.2189 17.9219C32.1764 17.9219 32.9532 18.698 32.9532 19.6562C32.9532 20.6138 32.1764 21.3906 31.2189 21.3906Z" fill="white"/>
</g>
<defs>
<clipPath id="clip0">
<rect width="37" height="37" fill="white" transform="translate(0.00012207)"/>
</clipPath>
</defs>
</svg>
