<svg preserveAspectRatio="none" viewBox="0 0 57 57" fill="none" xmlns="http://www.w3.org/2000/svg">
<path d="M42.7501 19.0001C46.6852 19.0001 49.8751 15.8102 49.8751 11.8751C49.8751 7.94009 46.6852 4.75012 42.7501 4.75012C38.8151 4.75012 35.6251 7.94009 35.6251 11.8751C35.6251 15.8102 38.8151 19.0001 42.7501 19.0001Z" stroke="white" stroke-width="2" stroke-linecap="round" stroke-linejoin="round"/>
<path d="M14.2501 35.6251C18.1852 35.6251 21.3751 32.4352 21.3751 28.5001C21.3751 24.5651 18.1852 21.3751 14.2501 21.3751C10.3151 21.3751 7.12512 24.5651 7.12512 28.5001C7.12512 32.4352 10.3151 35.6251 14.2501 35.6251Z" stroke="white" stroke-width="2" stroke-linecap="round" stroke-linejoin="round"/>
<path d="M42.7501 52.2501C46.6852 52.2501 49.8751 49.0602 49.8751 45.1251C49.8751 41.1901 46.6852 38.0001 42.7501 38.0001C38.8151 38.0001 35.6251 41.1901 35.6251 45.1251C35.6251 49.0602 38.8151 52.2501 42.7501 52.2501Z" stroke="white" stroke-width="2" stroke-linecap="round" stroke-linejoin="round"/>
<path d="M20.4014 32.0864L36.6227 41.5389" stroke="white" stroke-width="2" stroke-linecap="round" stroke-linejoin="round"/>
<path d="M36.5989 15.4614L20.4014 24.9139" stroke="white" stroke-width="2" stroke-linecap="round" stroke-linejoin="round"/>
</svg>
