<svg preserveAspectRatio="none" viewBox="0 0 37 41" fill="none" xmlns="http://www.w3.org/2000/svg">
<g clip-path="url(#clip0)">
<path d="M35.0758 24.0074C35.3153 22.8863 35.464 21.6932 35.464 20.5C35.464 11.4111 27.874 4.05996 18.5084 4.05996C17.2778 4.05996 16.0555 4.19609 14.891 4.43633C13.3218 3.25918 11.3727 2.5625 9.25012 2.5625C4.1461 2.5625 0.00012207 6.58242 0.00012207 11.5312C0.00012207 13.5893 0.718649 15.4791 1.92445 16.9926C1.68494 18.1137 1.53628 19.3068 1.53628 20.5C1.53628 29.5889 9.12624 36.94 18.4919 36.94C19.7224 36.94 20.9448 36.8039 22.1093 36.5637C23.6785 37.7328 25.6276 38.4295 27.7419 38.4295C32.8459 38.4295 36.9919 34.4096 36.9919 29.4607C37.0001 27.4107 36.2816 25.5209 35.0758 24.0074ZM19.0039 31.3346C13.5861 31.3346 9.05191 28.9963 9.05191 26.1295C9.05191 24.8482 9.79521 23.6791 11.4883 23.6791C14.0651 23.6791 14.3046 27.2746 18.7644 27.2746C20.887 27.2746 22.2579 26.3617 22.2579 25.1686C22.2579 23.6711 20.9365 23.4389 18.7892 22.9264C13.6274 21.6932 9.06017 21.1646 9.06017 15.9436C9.06017 11.2029 13.8999 9.44922 18.0707 9.44922C22.6213 9.44922 27.2215 11.2029 27.2215 13.8855C27.2215 15.2389 26.28 16.432 24.7191 16.432C22.3818 16.432 22.3075 13.7494 18.5249 13.7494C16.4024 13.7494 15.0561 14.31 15.0561 15.5512C15.0561 17.1367 16.774 17.2969 20.7631 18.1937C24.1823 18.9385 28.2539 20.3398 28.2539 24.4078C28.2539 29.1404 23.5381 31.3346 19.0039 31.3346Z" fill="white"/>
</g>
<defs>
<clipPath id="clip0">
<rect width="37" height="41" fill="white" transform="translate(0.00012207)"/>
</clipPath>
</defs>
</svg>
